<mxfile host="app.diagrams.net" modified="2024-05-24T20:06:17.857Z" agent="Mozilla/5.0 (Macintosh; Intel Mac OS X 10_15_7) AppleWebKit/537.36 (KHTML, like Gecko) Chrome/125.0.0.0 Safari/537.36" etag="AdrPcZb2kCOAja3t1CS4" version="24.3.1" type="device">
  <diagram name="Seite-1" id="y2tRvDIc03JtsyjdctGQ">
    <mxGraphModel dx="4027" dy="3979" grid="1" gridSize="10" guides="1" tooltips="1" connect="1" arrows="1" fold="1" page="1" pageScale="1" pageWidth="827" pageHeight="1169" math="0" shadow="0">
      <root>
        <mxCell id="0" />
        <mxCell id="1" parent="0" />
        <mxCell id="UOCS6HupujKiP41zG-po-17" value="&lt;font style=&quot;font-size: 15px;&quot;&gt;Pegelhub-Frontend&lt;/font&gt;" style="swimlane;whiteSpace=wrap;html=1;fillColor=#f8cecc;strokeColor=#b85450;" parent="1" vertex="1">
          <mxGeometry x="-520" y="-230" width="2500" height="1100" as="geometry" />
        </mxCell>
        <mxCell id="UOCS6HupujKiP41zG-po-19" value="Header" style="swimlane;fontStyle=0;childLayout=stackLayout;horizontal=1;startSize=30;horizontalStack=0;resizeParent=1;resizeParentMax=0;resizeLast=0;collapsible=1;marginBottom=0;whiteSpace=wrap;html=1;fillColor=#d5e8d4;strokeColor=#82b366;" parent="UOCS6HupujKiP41zG-po-17" vertex="1">
          <mxGeometry x="190" y="185" width="240" height="90" as="geometry" />
        </mxCell>
        <mxCell id="UOCS6HupujKiP41zG-po-20" value="Component" style="text;strokeColor=none;fillColor=none;align=left;verticalAlign=middle;spacingLeft=4;spacingRight=4;overflow=hidden;points=[[0,0.5],[1,0.5]];portConstraint=eastwest;rotatable=0;whiteSpace=wrap;html=1;" parent="UOCS6HupujKiP41zG-po-19" vertex="1">
          <mxGeometry y="30" width="240" height="30" as="geometry" />
        </mxCell>
        <mxCell id="UOCS6HupujKiP41zG-po-21" value="- Anzeige einer Toolbar-Leiste" style="text;strokeColor=none;fillColor=none;align=left;verticalAlign=middle;spacingLeft=4;spacingRight=4;overflow=hidden;points=[[0,0.5],[1,0.5]];portConstraint=eastwest;rotatable=0;whiteSpace=wrap;html=1;" parent="UOCS6HupujKiP41zG-po-19" vertex="1">
          <mxGeometry y="60" width="240" height="30" as="geometry" />
        </mxCell>
        <mxCell id="UOCS6HupujKiP41zG-po-32" style="edgeStyle=orthogonalEdgeStyle;rounded=0;orthogonalLoop=1;jettySize=auto;html=1;" parent="UOCS6HupujKiP41zG-po-17" source="UOCS6HupujKiP41zG-po-1" target="UOCS6HupujKiP41zG-po-23" edge="1">
          <mxGeometry relative="1" as="geometry" />
        </mxCell>
        <mxCell id="UOCS6HupujKiP41zG-po-33" value="Lesen der Pegellieferanten und Pegelstände" style="edgeLabel;html=1;align=center;verticalAlign=middle;resizable=0;points=[];" parent="UOCS6HupujKiP41zG-po-32" vertex="1" connectable="0">
          <mxGeometry x="-0.1289" relative="1" as="geometry">
            <mxPoint x="-26" y="-15" as="offset" />
          </mxGeometry>
        </mxCell>
        <mxCell id="UOCS6HupujKiP41zG-po-1" value="Overview" style="swimlane;fontStyle=0;childLayout=stackLayout;horizontal=1;startSize=30;horizontalStack=0;resizeParent=1;resizeParentMax=0;resizeLast=0;collapsible=1;marginBottom=0;whiteSpace=wrap;html=1;fillColor=#d5e8d4;strokeColor=#82b366;" parent="UOCS6HupujKiP41zG-po-17" vertex="1">
          <mxGeometry x="190" y="475" width="240" height="120" as="geometry" />
        </mxCell>
        <mxCell id="UOCS6HupujKiP41zG-po-2" value="Component" style="text;strokeColor=none;fillColor=none;align=left;verticalAlign=middle;spacingLeft=4;spacingRight=4;overflow=hidden;points=[[0,0.5],[1,0.5]];portConstraint=eastwest;rotatable=0;whiteSpace=wrap;html=1;" parent="UOCS6HupujKiP41zG-po-1" vertex="1">
          <mxGeometry y="30" width="240" height="30" as="geometry" />
        </mxCell>
        <mxCell id="UOCS6HupujKiP41zG-po-4" value="- Anzeige der Pegelstände pro Lieferant" style="text;strokeColor=none;fillColor=none;align=left;verticalAlign=middle;spacingLeft=4;spacingRight=4;overflow=hidden;points=[[0,0.5],[1,0.5]];portConstraint=eastwest;rotatable=0;whiteSpace=wrap;html=1;" parent="UOCS6HupujKiP41zG-po-1" vertex="1">
          <mxGeometry y="60" width="240" height="30" as="geometry" />
        </mxCell>
        <mxCell id="UOCS6HupujKiP41zG-po-8" value="- Tabellarische und Kachelansicht" style="text;strokeColor=none;fillColor=none;align=left;verticalAlign=middle;spacingLeft=4;spacingRight=4;overflow=hidden;points=[[0,0.5],[1,0.5]];portConstraint=eastwest;rotatable=0;whiteSpace=wrap;html=1;" parent="UOCS6HupujKiP41zG-po-1" vertex="1">
          <mxGeometry y="90" width="240" height="30" as="geometry" />
        </mxCell>
        <mxCell id="UOCS6HupujKiP41zG-po-10" style="edgeStyle=orthogonalEdgeStyle;rounded=0;orthogonalLoop=1;jettySize=auto;html=1;exitX=0.5;exitY=1.083;exitDx=0;exitDy=0;exitPerimeter=0;" parent="UOCS6HupujKiP41zG-po-17" source="WJoH4SUaVZR1YwY4vEf7-14" target="UOCS6HupujKiP41zG-po-1" edge="1">
          <mxGeometry relative="1" as="geometry">
            <Array as="points">
              <mxPoint x="310" y="425" />
              <mxPoint x="310" y="425" />
            </Array>
          </mxGeometry>
        </mxCell>
        <mxCell id="UOCS6HupujKiP41zG-po-11" value="/overview" style="edgeLabel;html=1;align=center;verticalAlign=middle;resizable=0;points=[];" parent="UOCS6HupujKiP41zG-po-10" vertex="1" connectable="0">
          <mxGeometry x="-0.2091" relative="1" as="geometry">
            <mxPoint y="1" as="offset" />
          </mxGeometry>
        </mxCell>
        <mxCell id="WJoH4SUaVZR1YwY4vEf7-19" value="/login" style="edgeStyle=orthogonalEdgeStyle;rounded=0;orthogonalLoop=1;jettySize=auto;html=1;exitX=0.5;exitY=0;exitDx=0;exitDy=0;entryX=0;entryY=0.5;entryDx=0;entryDy=0;" edge="1" parent="UOCS6HupujKiP41zG-po-17" source="UOCS6HupujKiP41zG-po-9" target="WJoH4SUaVZR1YwY4vEf7-13">
          <mxGeometry relative="1" as="geometry" />
        </mxCell>
        <mxCell id="UOCS6HupujKiP41zG-po-9" value="Start" style="ellipse;whiteSpace=wrap;html=1;aspect=fixed;" parent="UOCS6HupujKiP41zG-po-17" vertex="1">
          <mxGeometry x="40" y="390" width="80" height="80" as="geometry" />
        </mxCell>
        <mxCell id="UOCS6HupujKiP41zG-po-34" value="Lesen der Pegellieferanten und Pegelstände" style="edgeStyle=orthogonalEdgeStyle;rounded=0;orthogonalLoop=1;jettySize=auto;html=1;exitX=0.567;exitY=0.989;exitDx=0;exitDy=0;exitPerimeter=0;" parent="UOCS6HupujKiP41zG-po-17" source="UOCS6HupujKiP41zG-po-15" target="UOCS6HupujKiP41zG-po-23" edge="1">
          <mxGeometry x="-0.0667" relative="1" as="geometry">
            <mxPoint as="offset" />
            <Array as="points">
              <mxPoint x="986" y="675" />
            </Array>
          </mxGeometry>
        </mxCell>
        <mxCell id="UOCS6HupujKiP41zG-po-12" value="DetailComponent" style="swimlane;fontStyle=0;childLayout=stackLayout;horizontal=1;startSize=30;horizontalStack=0;resizeParent=1;resizeParentMax=0;resizeLast=0;collapsible=1;marginBottom=0;whiteSpace=wrap;html=1;fillColor=#d5e8d4;strokeColor=#82b366;" parent="UOCS6HupujKiP41zG-po-17" vertex="1">
          <mxGeometry x="850" y="305" width="240" height="120" as="geometry" />
        </mxCell>
        <mxCell id="UOCS6HupujKiP41zG-po-13" value="Component" style="text;strokeColor=none;fillColor=none;align=left;verticalAlign=middle;spacingLeft=4;spacingRight=4;overflow=hidden;points=[[0,0.5],[1,0.5]];portConstraint=eastwest;rotatable=0;whiteSpace=wrap;html=1;" parent="UOCS6HupujKiP41zG-po-12" vertex="1">
          <mxGeometry y="30" width="240" height="30" as="geometry" />
        </mxCell>
        <mxCell id="UOCS6HupujKiP41zG-po-14" value="- Anzeige der Pegelstände für Lieferant" style="text;strokeColor=none;fillColor=none;align=left;verticalAlign=middle;spacingLeft=4;spacingRight=4;overflow=hidden;points=[[0,0.5],[1,0.5]];portConstraint=eastwest;rotatable=0;whiteSpace=wrap;html=1;" parent="UOCS6HupujKiP41zG-po-12" vertex="1">
          <mxGeometry y="60" width="240" height="30" as="geometry" />
        </mxCell>
        <mxCell id="UOCS6HupujKiP41zG-po-15" value="- Tabellarische und Kachelansicht" style="text;strokeColor=none;fillColor=none;align=left;verticalAlign=middle;spacingLeft=4;spacingRight=4;overflow=hidden;points=[[0,0.5],[1,0.5]];portConstraint=eastwest;rotatable=0;whiteSpace=wrap;html=1;" parent="UOCS6HupujKiP41zG-po-12" vertex="1">
          <mxGeometry y="90" width="240" height="30" as="geometry" />
        </mxCell>
        <mxCell id="UOCS6HupujKiP41zG-po-16" value="route: /detail/:id" style="edgeStyle=orthogonalEdgeStyle;rounded=0;orthogonalLoop=1;jettySize=auto;html=1;" parent="UOCS6HupujKiP41zG-po-17" source="UOCS6HupujKiP41zG-po-1" target="UOCS6HupujKiP41zG-po-12" edge="1">
          <mxGeometry x="0.2308" relative="1" as="geometry">
            <mxPoint as="offset" />
          </mxGeometry>
        </mxCell>
        <mxCell id="UOCS6HupujKiP41zG-po-39" value="liest Endpunkte" style="edgeStyle=orthogonalEdgeStyle;rounded=0;orthogonalLoop=1;jettySize=auto;html=1;" parent="UOCS6HupujKiP41zG-po-17" source="UOCS6HupujKiP41zG-po-23" target="UOCS6HupujKiP41zG-po-36" edge="1">
          <mxGeometry relative="1" as="geometry" />
        </mxCell>
        <mxCell id="UOCS6HupujKiP41zG-po-23" value="UiService" style="swimlane;fontStyle=0;childLayout=stackLayout;horizontal=1;startSize=30;horizontalStack=0;resizeParent=1;resizeParentMax=0;resizeLast=0;collapsible=1;marginBottom=0;whiteSpace=wrap;html=1;fillColor=#fff2cc;strokeColor=#d6b656;" parent="UOCS6HupujKiP41zG-po-17" vertex="1">
          <mxGeometry x="550" y="630" width="240" height="90" as="geometry" />
        </mxCell>
        <mxCell id="UOCS6HupujKiP41zG-po-24" value="Service" style="text;strokeColor=none;fillColor=none;align=left;verticalAlign=middle;spacingLeft=4;spacingRight=4;overflow=hidden;points=[[0,0.5],[1,0.5]];portConstraint=eastwest;rotatable=0;whiteSpace=wrap;html=1;" parent="UOCS6HupujKiP41zG-po-23" vertex="1">
          <mxGeometry y="30" width="240" height="30" as="geometry" />
        </mxCell>
        <mxCell id="UOCS6HupujKiP41zG-po-25" value="- Methoden zum Lesen von Pegeldaten" style="text;strokeColor=none;fillColor=none;align=left;verticalAlign=middle;spacingLeft=4;spacingRight=4;overflow=hidden;points=[[0,0.5],[1,0.5]];portConstraint=eastwest;rotatable=0;whiteSpace=wrap;html=1;" parent="UOCS6HupujKiP41zG-po-23" vertex="1">
          <mxGeometry y="60" width="240" height="30" as="geometry" />
        </mxCell>
        <mxCell id="UOCS6HupujKiP41zG-po-36" value="environment" style="swimlane;fontStyle=0;childLayout=stackLayout;horizontal=1;startSize=30;horizontalStack=0;resizeParent=1;resizeParentMax=0;resizeLast=0;collapsible=1;marginBottom=0;whiteSpace=wrap;html=1;fillColor=#dae8fc;strokeColor=#6c8ebf;" parent="UOCS6HupujKiP41zG-po-17" vertex="1">
          <mxGeometry x="550" y="810" width="240" height="90" as="geometry" />
        </mxCell>
        <mxCell id="UOCS6HupujKiP41zG-po-37" value="Environment" style="text;strokeColor=none;fillColor=none;align=left;verticalAlign=middle;spacingLeft=4;spacingRight=4;overflow=hidden;points=[[0,0.5],[1,0.5]];portConstraint=eastwest;rotatable=0;whiteSpace=wrap;html=1;" parent="UOCS6HupujKiP41zG-po-36" vertex="1">
          <mxGeometry y="30" width="240" height="30" as="geometry" />
        </mxCell>
        <mxCell id="UOCS6HupujKiP41zG-po-38" value="- beinhaltet Basis URL von Backend" style="text;strokeColor=none;fillColor=none;align=left;verticalAlign=middle;spacingLeft=4;spacingRight=4;overflow=hidden;points=[[0,0.5],[1,0.5]];portConstraint=eastwest;rotatable=0;whiteSpace=wrap;html=1;" parent="UOCS6HupujKiP41zG-po-36" vertex="1">
          <mxGeometry y="60" width="240" height="30" as="geometry" />
        </mxCell>
        <mxCell id="UOCS6HupujKiP41zG-po-40" value="" style="endArrow=none;html=1;rounded=0;strokeWidth=3;" parent="UOCS6HupujKiP41zG-po-17" edge="1">
          <mxGeometry width="50" height="50" relative="1" as="geometry">
            <mxPoint x="1150" y="1050" as="sourcePoint" />
            <mxPoint x="1150" y="40" as="targetPoint" />
          </mxGeometry>
        </mxCell>
        <mxCell id="UOCS6HupujKiP41zG-po-41" value="&lt;font style=&quot;font-size: 20px;&quot;&gt;Applikationskomponenten&lt;/font&gt;" style="text;html=1;strokeColor=none;fillColor=none;align=center;verticalAlign=middle;whiteSpace=wrap;rounded=0;" parent="UOCS6HupujKiP41zG-po-17" vertex="1">
          <mxGeometry x="520" y="50" width="60" height="30" as="geometry" />
        </mxCell>
        <mxCell id="UOCS6HupujKiP41zG-po-42" value="&lt;font style=&quot;font-size: 20px;&quot;&gt;Applikationscore&lt;/font&gt;" style="text;html=1;strokeColor=none;fillColor=none;align=center;verticalAlign=middle;whiteSpace=wrap;rounded=0;" parent="UOCS6HupujKiP41zG-po-17" vertex="1">
          <mxGeometry x="1761" y="50" width="60" height="30" as="geometry" />
        </mxCell>
        <mxCell id="WJoH4SUaVZR1YwY4vEf7-20" value="provideRouter()" style="edgeStyle=orthogonalEdgeStyle;rounded=0;orthogonalLoop=1;jettySize=auto;html=1;entryX=0.5;entryY=0;entryDx=0;entryDy=0;" edge="1" parent="UOCS6HupujKiP41zG-po-17" source="UOCS6HupujKiP41zG-po-43" target="UOCS6HupujKiP41zG-po-46">
          <mxGeometry relative="1" as="geometry" />
        </mxCell>
        <mxCell id="UOCS6HupujKiP41zG-po-43" value="app.config.ts" style="swimlane;fontStyle=0;childLayout=stackLayout;horizontal=1;startSize=30;horizontalStack=0;resizeParent=1;resizeParentMax=0;resizeLast=0;collapsible=1;marginBottom=0;whiteSpace=wrap;html=1;fillColor=#dae8fc;strokeColor=#6c8ebf;" parent="UOCS6HupujKiP41zG-po-17" vertex="1">
          <mxGeometry x="1470" y="210" width="240" height="90" as="geometry" />
        </mxCell>
        <mxCell id="UOCS6HupujKiP41zG-po-44" value="ts-Datei" style="text;strokeColor=none;fillColor=none;align=left;verticalAlign=middle;spacingLeft=4;spacingRight=4;overflow=hidden;points=[[0,0.5],[1,0.5]];portConstraint=eastwest;rotatable=0;whiteSpace=wrap;html=1;" parent="UOCS6HupujKiP41zG-po-43" vertex="1">
          <mxGeometry y="30" width="240" height="30" as="geometry" />
        </mxCell>
        <mxCell id="UOCS6HupujKiP41zG-po-45" value="- beinhaltet sämtliche Provider" style="text;strokeColor=none;fillColor=none;align=left;verticalAlign=middle;spacingLeft=4;spacingRight=4;overflow=hidden;points=[[0,0.5],[1,0.5]];portConstraint=eastwest;rotatable=0;whiteSpace=wrap;html=1;" parent="UOCS6HupujKiP41zG-po-43" vertex="1">
          <mxGeometry y="60" width="240" height="30" as="geometry" />
        </mxCell>
        <mxCell id="UOCS6HupujKiP41zG-po-46" value="app.routes.ts" style="swimlane;fontStyle=0;childLayout=stackLayout;horizontal=1;startSize=30;horizontalStack=0;resizeParent=1;resizeParentMax=0;resizeLast=0;collapsible=1;marginBottom=0;whiteSpace=wrap;html=1;fillColor=#dae8fc;strokeColor=#6c8ebf;" parent="UOCS6HupujKiP41zG-po-17" vertex="1">
          <mxGeometry x="1470" y="380" width="240" height="90" as="geometry" />
        </mxCell>
        <mxCell id="UOCS6HupujKiP41zG-po-47" value="ts-Datei" style="text;strokeColor=none;fillColor=none;align=left;verticalAlign=middle;spacingLeft=4;spacingRight=4;overflow=hidden;points=[[0,0.5],[1,0.5]];portConstraint=eastwest;rotatable=0;whiteSpace=wrap;html=1;" parent="UOCS6HupujKiP41zG-po-46" vertex="1">
          <mxGeometry y="30" width="240" height="30" as="geometry" />
        </mxCell>
        <mxCell id="UOCS6HupujKiP41zG-po-48" value="- beinhaltet sämtliche Routen" style="text;strokeColor=none;fillColor=none;align=left;verticalAlign=middle;spacingLeft=4;spacingRight=4;overflow=hidden;points=[[0,0.5],[1,0.5]];portConstraint=eastwest;rotatable=0;whiteSpace=wrap;html=1;" parent="UOCS6HupujKiP41zG-po-46" vertex="1">
          <mxGeometry y="60" width="240" height="30" as="geometry" />
        </mxCell>
        <mxCell id="UOCS6HupujKiP41zG-po-49" value="AppComponent" style="swimlane;fontStyle=0;childLayout=stackLayout;horizontal=1;startSize=30;horizontalStack=0;resizeParent=1;resizeParentMax=0;resizeLast=0;collapsible=1;marginBottom=0;whiteSpace=wrap;html=1;fillColor=#d5e8d4;strokeColor=#82b366;" parent="UOCS6HupujKiP41zG-po-17" vertex="1">
          <mxGeometry x="1470" y="550" width="240" height="90" as="geometry" />
        </mxCell>
        <mxCell id="UOCS6HupujKiP41zG-po-50" value="Component" style="text;strokeColor=none;fillColor=none;align=left;verticalAlign=middle;spacingLeft=4;spacingRight=4;overflow=hidden;points=[[0,0.5],[1,0.5]];portConstraint=eastwest;rotatable=0;whiteSpace=wrap;html=1;" parent="UOCS6HupujKiP41zG-po-49" vertex="1">
          <mxGeometry y="30" width="240" height="30" as="geometry" />
        </mxCell>
        <mxCell id="UOCS6HupujKiP41zG-po-51" value="- Hauptkomponente der Applikation" style="text;strokeColor=none;fillColor=none;align=left;verticalAlign=middle;spacingLeft=4;spacingRight=4;overflow=hidden;points=[[0,0.5],[1,0.5]];portConstraint=eastwest;rotatable=0;whiteSpace=wrap;html=1;" parent="UOCS6HupujKiP41zG-po-49" vertex="1">
          <mxGeometry y="60" width="240" height="30" as="geometry" />
        </mxCell>
        <mxCell id="UOCS6HupujKiP41zG-po-52" value="package.json" style="swimlane;fontStyle=0;childLayout=stackLayout;horizontal=1;startSize=30;horizontalStack=0;resizeParent=1;resizeParentMax=0;resizeLast=0;collapsible=1;marginBottom=0;whiteSpace=wrap;html=1;fillColor=#e1d5e7;strokeColor=#9673a6;" parent="UOCS6HupujKiP41zG-po-17" vertex="1">
          <mxGeometry x="1310" y="685" width="240" height="90" as="geometry" />
        </mxCell>
        <mxCell id="UOCS6HupujKiP41zG-po-53" value="json Datei" style="text;strokeColor=none;fillColor=none;align=left;verticalAlign=middle;spacingLeft=4;spacingRight=4;overflow=hidden;points=[[0,0.5],[1,0.5]];portConstraint=eastwest;rotatable=0;whiteSpace=wrap;html=1;" parent="UOCS6HupujKiP41zG-po-52" vertex="1">
          <mxGeometry y="30" width="240" height="30" as="geometry" />
        </mxCell>
        <mxCell id="UOCS6HupujKiP41zG-po-54" value="- Verwaltung des Node Modules" style="text;strokeColor=none;fillColor=none;align=left;verticalAlign=middle;spacingLeft=4;spacingRight=4;overflow=hidden;points=[[0,0.5],[1,0.5]];portConstraint=eastwest;rotatable=0;whiteSpace=wrap;html=1;" parent="UOCS6HupujKiP41zG-po-52" vertex="1">
          <mxGeometry y="60" width="240" height="30" as="geometry" />
        </mxCell>
        <mxCell id="UOCS6HupujKiP41zG-po-55" value="angular.json" style="swimlane;fontStyle=0;childLayout=stackLayout;horizontal=1;startSize=30;horizontalStack=0;resizeParent=1;resizeParentMax=0;resizeLast=0;collapsible=1;marginBottom=0;whiteSpace=wrap;html=1;fillColor=#e1d5e7;strokeColor=#9673a6;" parent="UOCS6HupujKiP41zG-po-17" vertex="1">
          <mxGeometry x="1310" y="830" width="240" height="90" as="geometry" />
        </mxCell>
        <mxCell id="UOCS6HupujKiP41zG-po-56" value="json Datei" style="text;strokeColor=none;fillColor=none;align=left;verticalAlign=middle;spacingLeft=4;spacingRight=4;overflow=hidden;points=[[0,0.5],[1,0.5]];portConstraint=eastwest;rotatable=0;whiteSpace=wrap;html=1;" parent="UOCS6HupujKiP41zG-po-55" vertex="1">
          <mxGeometry y="30" width="240" height="30" as="geometry" />
        </mxCell>
        <mxCell id="UOCS6HupujKiP41zG-po-57" value="- Angular Applikationsdeskriptor" style="text;strokeColor=none;fillColor=none;align=left;verticalAlign=middle;spacingLeft=4;spacingRight=4;overflow=hidden;points=[[0,0.5],[1,0.5]];portConstraint=eastwest;rotatable=0;whiteSpace=wrap;html=1;" parent="UOCS6HupujKiP41zG-po-55" vertex="1">
          <mxGeometry y="60" width="240" height="30" as="geometry" />
        </mxCell>
        <mxCell id="UOCS6HupujKiP41zG-po-81" value="importiert" style="edgeStyle=orthogonalEdgeStyle;rounded=0;orthogonalLoop=1;jettySize=auto;html=1;entryX=0.5;entryY=0;entryDx=0;entryDy=0;" parent="UOCS6HupujKiP41zG-po-17" source="UOCS6HupujKiP41zG-po-75" target="UOCS6HupujKiP41zG-po-78" edge="1">
          <mxGeometry relative="1" as="geometry" />
        </mxCell>
        <mxCell id="UOCS6HupujKiP41zG-po-75" value="styles.scss" style="swimlane;fontStyle=0;childLayout=stackLayout;horizontal=1;startSize=30;horizontalStack=0;resizeParent=1;resizeParentMax=0;resizeLast=0;collapsible=1;marginBottom=0;whiteSpace=wrap;html=1;fillColor=#e1d5e7;strokeColor=#9673a6;" parent="UOCS6HupujKiP41zG-po-17" vertex="1">
          <mxGeometry x="1790" y="210" width="240" height="90" as="geometry" />
        </mxCell>
        <mxCell id="UOCS6HupujKiP41zG-po-76" value="SCSS-Datei" style="text;strokeColor=none;fillColor=none;align=left;verticalAlign=middle;spacingLeft=4;spacingRight=4;overflow=hidden;points=[[0,0.5],[1,0.5]];portConstraint=eastwest;rotatable=0;whiteSpace=wrap;html=1;" parent="UOCS6HupujKiP41zG-po-75" vertex="1">
          <mxGeometry y="30" width="240" height="30" as="geometry" />
        </mxCell>
        <mxCell id="UOCS6HupujKiP41zG-po-77" value="- Haupt SCSS-Datei" style="text;strokeColor=none;fillColor=none;align=left;verticalAlign=middle;spacingLeft=4;spacingRight=4;overflow=hidden;points=[[0,0.5],[1,0.5]];portConstraint=eastwest;rotatable=0;whiteSpace=wrap;html=1;" parent="UOCS6HupujKiP41zG-po-75" vertex="1">
          <mxGeometry y="60" width="240" height="30" as="geometry" />
        </mxCell>
        <mxCell id="UOCS6HupujKiP41zG-po-78" value="theme.scss" style="swimlane;fontStyle=0;childLayout=stackLayout;horizontal=1;startSize=30;horizontalStack=0;resizeParent=1;resizeParentMax=0;resizeLast=0;collapsible=1;marginBottom=0;whiteSpace=wrap;html=1;fillColor=#e1d5e7;strokeColor=#9673a6;" parent="UOCS6HupujKiP41zG-po-17" vertex="1">
          <mxGeometry x="1790" y="380" width="240" height="90" as="geometry" />
        </mxCell>
        <mxCell id="UOCS6HupujKiP41zG-po-79" value="SCSS-Datei" style="text;strokeColor=none;fillColor=none;align=left;verticalAlign=middle;spacingLeft=4;spacingRight=4;overflow=hidden;points=[[0,0.5],[1,0.5]];portConstraint=eastwest;rotatable=0;whiteSpace=wrap;html=1;" parent="UOCS6HupujKiP41zG-po-78" vertex="1">
          <mxGeometry y="30" width="240" height="30" as="geometry" />
        </mxCell>
        <mxCell id="UOCS6HupujKiP41zG-po-80" value="- Standard-Farben und Border-Radius" style="text;strokeColor=none;fillColor=none;align=left;verticalAlign=middle;spacingLeft=4;spacingRight=4;overflow=hidden;points=[[0,0.5],[1,0.5]];portConstraint=eastwest;rotatable=0;whiteSpace=wrap;html=1;" parent="UOCS6HupujKiP41zG-po-78" vertex="1">
          <mxGeometry y="60" width="240" height="30" as="geometry" />
        </mxCell>
        <mxCell id="UOCS6HupujKiP41zG-po-59" value="@angular" style="ellipse;whiteSpace=wrap;html=1;fillColor=#ffe6cc;strokeColor=#d79b00;" parent="UOCS6HupujKiP41zG-po-17" vertex="1">
          <mxGeometry x="2090" y="550" width="120" height="80" as="geometry" />
        </mxCell>
        <mxCell id="UOCS6HupujKiP41zG-po-60" value="@syncfusion" style="ellipse;whiteSpace=wrap;html=1;fillColor=#ffe6cc;strokeColor=#d79b00;" parent="UOCS6HupujKiP41zG-po-17" vertex="1">
          <mxGeometry x="2090" y="640" width="120" height="80" as="geometry" />
        </mxCell>
        <mxCell id="UOCS6HupujKiP41zG-po-61" value="@highcharts" style="ellipse;whiteSpace=wrap;html=1;fillColor=#ffe6cc;strokeColor=#d79b00;" parent="UOCS6HupujKiP41zG-po-17" vertex="1">
          <mxGeometry x="2090" y="730" width="120" height="80" as="geometry" />
        </mxCell>
        <mxCell id="UOCS6HupujKiP41zG-po-62" value="@primeng" style="ellipse;whiteSpace=wrap;html=1;fillColor=#ffe6cc;strokeColor=#d79b00;" parent="UOCS6HupujKiP41zG-po-17" vertex="1">
          <mxGeometry x="2090" y="820" width="120" height="80" as="geometry" />
        </mxCell>
        <mxCell id="UOCS6HupujKiP41zG-po-65" style="edgeStyle=orthogonalEdgeStyle;rounded=0;orthogonalLoop=1;jettySize=auto;html=1;" parent="UOCS6HupujKiP41zG-po-17" source="UOCS6HupujKiP41zG-po-63" target="UOCS6HupujKiP41zG-po-62" edge="1">
          <mxGeometry relative="1" as="geometry" />
        </mxCell>
        <mxCell id="UOCS6HupujKiP41zG-po-63" value="primeicons" style="ellipse;whiteSpace=wrap;html=1;fillColor=#ffe6cc;strokeColor=#d79b00;" parent="UOCS6HupujKiP41zG-po-17" vertex="1">
          <mxGeometry x="2250" y="770" width="120" height="80" as="geometry" />
        </mxCell>
        <mxCell id="UOCS6HupujKiP41zG-po-66" style="edgeStyle=orthogonalEdgeStyle;rounded=0;orthogonalLoop=1;jettySize=auto;html=1;" parent="UOCS6HupujKiP41zG-po-17" source="UOCS6HupujKiP41zG-po-64" target="UOCS6HupujKiP41zG-po-62" edge="1">
          <mxGeometry relative="1" as="geometry" />
        </mxCell>
        <mxCell id="UOCS6HupujKiP41zG-po-64" value="primeflex" style="ellipse;whiteSpace=wrap;html=1;fillColor=#ffe6cc;strokeColor=#d79b00;" parent="UOCS6HupujKiP41zG-po-17" vertex="1">
          <mxGeometry x="2250" y="860" width="120" height="80" as="geometry" />
        </mxCell>
        <mxCell id="UOCS6HupujKiP41zG-po-73" value="&lt;span style=&quot;font-size: 16px;&quot;&gt;Node Dependencies&lt;/span&gt;" style="text;html=1;strokeColor=none;fillColor=none;align=center;verticalAlign=middle;whiteSpace=wrap;rounded=0;" parent="UOCS6HupujKiP41zG-po-17" vertex="1">
          <mxGeometry x="2160" y="480" width="150" height="30" as="geometry" />
        </mxCell>
        <mxCell id="UOCS6HupujKiP41zG-po-70" style="edgeStyle=orthogonalEdgeStyle;rounded=0;orthogonalLoop=1;jettySize=auto;html=1;strokeColor=none;" parent="UOCS6HupujKiP41zG-po-17" source="UOCS6HupujKiP41zG-po-59" target="UOCS6HupujKiP41zG-po-52" edge="1">
          <mxGeometry relative="1" as="geometry" />
        </mxCell>
        <mxCell id="UOCS6HupujKiP41zG-po-71" style="edgeStyle=orthogonalEdgeStyle;rounded=0;orthogonalLoop=1;jettySize=auto;html=1;" parent="UOCS6HupujKiP41zG-po-17" source="UOCS6HupujKiP41zG-po-59" target="UOCS6HupujKiP41zG-po-52" edge="1">
          <mxGeometry relative="1" as="geometry">
            <Array as="points">
              <mxPoint x="1900" y="590" />
              <mxPoint x="1900" y="730" />
            </Array>
          </mxGeometry>
        </mxCell>
        <mxCell id="UOCS6HupujKiP41zG-po-69" style="edgeStyle=orthogonalEdgeStyle;rounded=0;orthogonalLoop=1;jettySize=auto;html=1;exitX=0;exitY=0.5;exitDx=0;exitDy=0;" parent="UOCS6HupujKiP41zG-po-17" source="UOCS6HupujKiP41zG-po-60" target="UOCS6HupujKiP41zG-po-52" edge="1">
          <mxGeometry relative="1" as="geometry">
            <Array as="points">
              <mxPoint x="2090" y="730" />
            </Array>
          </mxGeometry>
        </mxCell>
        <mxCell id="UOCS6HupujKiP41zG-po-68" style="edgeStyle=orthogonalEdgeStyle;rounded=0;orthogonalLoop=1;jettySize=auto;html=1;exitX=0;exitY=0.5;exitDx=0;exitDy=0;" parent="UOCS6HupujKiP41zG-po-17" source="UOCS6HupujKiP41zG-po-61" target="UOCS6HupujKiP41zG-po-52" edge="1">
          <mxGeometry relative="1" as="geometry">
            <Array as="points">
              <mxPoint x="2090" y="730" />
            </Array>
          </mxGeometry>
        </mxCell>
        <mxCell id="UOCS6HupujKiP41zG-po-67" style="edgeStyle=orthogonalEdgeStyle;rounded=0;orthogonalLoop=1;jettySize=auto;html=1;" parent="UOCS6HupujKiP41zG-po-17" source="UOCS6HupujKiP41zG-po-62" edge="1">
          <mxGeometry relative="1" as="geometry">
            <mxPoint x="1550" y="730" as="targetPoint" />
            <Array as="points">
              <mxPoint x="2090" y="800" />
              <mxPoint x="1590" y="800" />
              <mxPoint x="1590" y="730" />
              <mxPoint x="1550" y="730" />
            </Array>
          </mxGeometry>
        </mxCell>
        <mxCell id="UOCS6HupujKiP41zG-po-82" value="highcharts.scss" style="swimlane;fontStyle=0;childLayout=stackLayout;horizontal=1;startSize=30;horizontalStack=0;resizeParent=1;resizeParentMax=0;resizeLast=0;collapsible=1;marginBottom=0;whiteSpace=wrap;html=1;fillColor=#e1d5e7;strokeColor=#9673a6;" parent="UOCS6HupujKiP41zG-po-17" vertex="1">
          <mxGeometry x="2140" y="210" width="240" height="90" as="geometry" />
        </mxCell>
        <mxCell id="UOCS6HupujKiP41zG-po-83" value="SCSS-Datei" style="text;strokeColor=none;fillColor=none;align=left;verticalAlign=middle;spacingLeft=4;spacingRight=4;overflow=hidden;points=[[0,0.5],[1,0.5]];portConstraint=eastwest;rotatable=0;whiteSpace=wrap;html=1;" parent="UOCS6HupujKiP41zG-po-82" vertex="1">
          <mxGeometry y="30" width="240" height="30" as="geometry" />
        </mxCell>
        <mxCell id="UOCS6HupujKiP41zG-po-84" value="- HighChart Chart Theme" style="text;strokeColor=none;fillColor=none;align=left;verticalAlign=middle;spacingLeft=4;spacingRight=4;overflow=hidden;points=[[0,0.5],[1,0.5]];portConstraint=eastwest;rotatable=0;whiteSpace=wrap;html=1;" parent="UOCS6HupujKiP41zG-po-82" vertex="1">
          <mxGeometry y="60" width="240" height="30" as="geometry" />
        </mxCell>
        <mxCell id="UOCS6HupujKiP41zG-po-85" value="importiert" style="edgeStyle=orthogonalEdgeStyle;rounded=0;orthogonalLoop=1;jettySize=auto;html=1;entryX=0;entryY=0.5;entryDx=0;entryDy=0;" parent="UOCS6HupujKiP41zG-po-17" source="UOCS6HupujKiP41zG-po-76" target="UOCS6HupujKiP41zG-po-82" edge="1">
          <mxGeometry relative="1" as="geometry" />
        </mxCell>
        <mxCell id="WJoH4SUaVZR1YwY4vEf7-4" value="base-theme.scss" style="swimlane;fontStyle=0;childLayout=stackLayout;horizontal=1;startSize=30;horizontalStack=0;resizeParent=1;resizeParentMax=0;resizeLast=0;collapsible=1;marginBottom=0;whiteSpace=wrap;html=1;fillColor=#e1d5e7;strokeColor=#9673a6;" vertex="1" parent="UOCS6HupujKiP41zG-po-17">
          <mxGeometry x="2140" y="380" width="240" height="90" as="geometry" />
        </mxCell>
        <mxCell id="WJoH4SUaVZR1YwY4vEf7-5" value="SCSS-Datei" style="text;strokeColor=none;fillColor=none;align=left;verticalAlign=middle;spacingLeft=4;spacingRight=4;overflow=hidden;points=[[0,0.5],[1,0.5]];portConstraint=eastwest;rotatable=0;whiteSpace=wrap;html=1;" vertex="1" parent="WJoH4SUaVZR1YwY4vEf7-4">
          <mxGeometry y="30" width="240" height="30" as="geometry" />
        </mxCell>
        <mxCell id="WJoH4SUaVZR1YwY4vEf7-6" value="- PrimeNg Theme" style="text;strokeColor=none;fillColor=none;align=left;verticalAlign=middle;spacingLeft=4;spacingRight=4;overflow=hidden;points=[[0,0.5],[1,0.5]];portConstraint=eastwest;rotatable=0;whiteSpace=wrap;html=1;" vertex="1" parent="WJoH4SUaVZR1YwY4vEf7-4">
          <mxGeometry y="60" width="240" height="30" as="geometry" />
        </mxCell>
        <mxCell id="WJoH4SUaVZR1YwY4vEf7-7" value="importiert" style="edgeStyle=orthogonalEdgeStyle;rounded=0;orthogonalLoop=1;jettySize=auto;html=1;" edge="1" parent="UOCS6HupujKiP41zG-po-17" source="UOCS6HupujKiP41zG-po-77" target="WJoH4SUaVZR1YwY4vEf7-5">
          <mxGeometry relative="1" as="geometry" />
        </mxCell>
        <mxCell id="WJoH4SUaVZR1YwY4vEf7-8" value="@leaflet" style="ellipse;whiteSpace=wrap;html=1;fillColor=#ffe6cc;strokeColor=#d79b00;" vertex="1" parent="UOCS6HupujKiP41zG-po-17">
          <mxGeometry x="2090" y="910" width="120" height="80" as="geometry" />
        </mxCell>
        <mxCell id="WJoH4SUaVZR1YwY4vEf7-9" style="edgeStyle=orthogonalEdgeStyle;rounded=0;orthogonalLoop=1;jettySize=auto;html=1;entryX=1;entryY=0.5;entryDx=0;entryDy=0;" edge="1" parent="UOCS6HupujKiP41zG-po-17" target="UOCS6HupujKiP41zG-po-53">
          <mxGeometry relative="1" as="geometry">
            <mxPoint x="2090.0000000000005" y="949.9999999999995" as="sourcePoint" />
            <mxPoint x="1590" y="804" as="targetPoint" />
            <Array as="points">
              <mxPoint x="1590" y="950" />
              <mxPoint x="1590" y="730" />
            </Array>
          </mxGeometry>
        </mxCell>
        <mxCell id="WJoH4SUaVZR1YwY4vEf7-12" value="Login" style="swimlane;fontStyle=0;childLayout=stackLayout;horizontal=1;startSize=30;horizontalStack=0;resizeParent=1;resizeParentMax=0;resizeLast=0;collapsible=1;marginBottom=0;whiteSpace=wrap;html=1;fillColor=#d5e8d4;strokeColor=#82b366;" vertex="1" parent="UOCS6HupujKiP41zG-po-17">
          <mxGeometry x="190" y="305" width="240" height="90" as="geometry" />
        </mxCell>
        <mxCell id="WJoH4SUaVZR1YwY4vEf7-13" value="Component" style="text;strokeColor=none;fillColor=none;align=left;verticalAlign=middle;spacingLeft=4;spacingRight=4;overflow=hidden;points=[[0,0.5],[1,0.5]];portConstraint=eastwest;rotatable=0;whiteSpace=wrap;html=1;" vertex="1" parent="WJoH4SUaVZR1YwY4vEf7-12">
          <mxGeometry y="30" width="240" height="30" as="geometry" />
        </mxCell>
        <mxCell id="WJoH4SUaVZR1YwY4vEf7-14" value="- Anzeige eines Floating Headers" style="text;strokeColor=none;fillColor=none;align=left;verticalAlign=middle;spacingLeft=4;spacingRight=4;overflow=hidden;points=[[0,0.5],[1,0.5]];portConstraint=eastwest;rotatable=0;whiteSpace=wrap;html=1;" vertex="1" parent="WJoH4SUaVZR1YwY4vEf7-12">
          <mxGeometry y="60" width="240" height="30" as="geometry" />
        </mxCell>
        <mxCell id="WJoH4SUaVZR1YwY4vEf7-15" value="Settings" style="swimlane;fontStyle=0;childLayout=stackLayout;horizontal=1;startSize=30;horizontalStack=0;resizeParent=1;resizeParentMax=0;resizeLast=0;collapsible=1;marginBottom=0;whiteSpace=wrap;html=1;fillColor=#d5e8d4;strokeColor=#82b366;" vertex="1" parent="UOCS6HupujKiP41zG-po-17">
          <mxGeometry x="490" y="175" width="240" height="110" as="geometry" />
        </mxCell>
        <mxCell id="WJoH4SUaVZR1YwY4vEf7-16" value="Component" style="text;strokeColor=none;fillColor=none;align=left;verticalAlign=middle;spacingLeft=4;spacingRight=4;overflow=hidden;points=[[0,0.5],[1,0.5]];portConstraint=eastwest;rotatable=0;whiteSpace=wrap;html=1;" vertex="1" parent="WJoH4SUaVZR1YwY4vEf7-15">
          <mxGeometry y="30" width="240" height="30" as="geometry" />
        </mxCell>
        <mxCell id="WJoH4SUaVZR1YwY4vEf7-17" value="- Änderung des API Keys&lt;div&gt;- Abmelden&lt;/div&gt;&lt;div&gt;- nicht sichtbar bei Login-Ansicht&lt;/div&gt;" style="text;strokeColor=none;fillColor=none;align=left;verticalAlign=middle;spacingLeft=4;spacingRight=4;overflow=hidden;points=[[0,0.5],[1,0.5]];portConstraint=eastwest;rotatable=0;whiteSpace=wrap;html=1;" vertex="1" parent="WJoH4SUaVZR1YwY4vEf7-15">
          <mxGeometry y="60" width="240" height="50" as="geometry" />
        </mxCell>
        <mxCell id="WJoH4SUaVZR1YwY4vEf7-18" style="edgeStyle=orthogonalEdgeStyle;rounded=0;orthogonalLoop=1;jettySize=auto;html=1;entryX=1;entryY=0.5;entryDx=0;entryDy=0;" edge="1" parent="UOCS6HupujKiP41zG-po-17" source="WJoH4SUaVZR1YwY4vEf7-15" target="UOCS6HupujKiP41zG-po-20">
          <mxGeometry relative="1" as="geometry">
            <Array as="points">
              <mxPoint x="440" y="230" />
              <mxPoint x="440" y="230" />
            </Array>
          </mxGeometry>
        </mxCell>
        <mxCell id="WJoH4SUaVZR1YwY4vEf7-21" value="main.ts" style="swimlane;fontStyle=0;childLayout=stackLayout;horizontal=1;startSize=30;horizontalStack=0;resizeParent=1;resizeParentMax=0;resizeLast=0;collapsible=1;marginBottom=0;whiteSpace=wrap;html=1;fillColor=#dae8fc;strokeColor=#6c8ebf;" vertex="1" parent="UOCS6HupujKiP41zG-po-17">
          <mxGeometry x="1180" y="380" width="240" height="90" as="geometry" />
        </mxCell>
        <mxCell id="WJoH4SUaVZR1YwY4vEf7-22" value="ts-Datei" style="text;strokeColor=none;fillColor=none;align=left;verticalAlign=middle;spacingLeft=4;spacingRight=4;overflow=hidden;points=[[0,0.5],[1,0.5]];portConstraint=eastwest;rotatable=0;whiteSpace=wrap;html=1;" vertex="1" parent="WJoH4SUaVZR1YwY4vEf7-21">
          <mxGeometry y="30" width="240" height="30" as="geometry" />
        </mxCell>
        <mxCell id="WJoH4SUaVZR1YwY4vEf7-23" value="- Bootstrap der Applikation" style="text;strokeColor=none;fillColor=none;align=left;verticalAlign=middle;spacingLeft=4;spacingRight=4;overflow=hidden;points=[[0,0.5],[1,0.5]];portConstraint=eastwest;rotatable=0;whiteSpace=wrap;html=1;" vertex="1" parent="WJoH4SUaVZR1YwY4vEf7-21">
          <mxGeometry y="60" width="240" height="30" as="geometry" />
        </mxCell>
        <mxCell id="WJoH4SUaVZR1YwY4vEf7-24" style="edgeStyle=orthogonalEdgeStyle;rounded=0;orthogonalLoop=1;jettySize=auto;html=1;exitX=0;exitY=0.5;exitDx=0;exitDy=0;startArrow=classic;startFill=1;endArrow=none;endFill=0;" edge="1" parent="UOCS6HupujKiP41zG-po-17" source="UOCS6HupujKiP41zG-po-50">
          <mxGeometry relative="1" as="geometry">
            <mxPoint x="1300" y="470" as="targetPoint" />
            <Array as="points">
              <mxPoint x="1300" y="595" />
              <mxPoint x="1300" y="470" />
            </Array>
          </mxGeometry>
        </mxCell>
        <mxCell id="WJoH4SUaVZR1YwY4vEf7-25" value="bootstrap" style="edgeLabel;html=1;align=center;verticalAlign=middle;resizable=0;points=[];" vertex="1" connectable="0" parent="WJoH4SUaVZR1YwY4vEf7-24">
          <mxGeometry x="0.4022" y="-1" relative="1" as="geometry">
            <mxPoint as="offset" />
          </mxGeometry>
        </mxCell>
        <mxCell id="WJoH4SUaVZR1YwY4vEf7-26" value="definiert Konfigurationsoptionen" style="edgeStyle=orthogonalEdgeStyle;rounded=0;orthogonalLoop=1;jettySize=auto;html=1;entryX=0.5;entryY=0;entryDx=0;entryDy=0;startArrow=classic;startFill=1;endArrow=none;endFill=0;" edge="1" parent="UOCS6HupujKiP41zG-po-17" source="UOCS6HupujKiP41zG-po-44" target="WJoH4SUaVZR1YwY4vEf7-21">
          <mxGeometry relative="1" as="geometry" />
        </mxCell>
        <mxCell id="UOCS6HupujKiP41zG-po-27" value="Pegelhub Core" style="swimlane;fontStyle=0;childLayout=stackLayout;horizontal=1;startSize=30;horizontalStack=0;resizeParent=1;resizeParentMax=0;resizeLast=0;collapsible=1;marginBottom=0;whiteSpace=wrap;html=1;fillColor=#fff2cc;strokeColor=#d6b656;" parent="1" vertex="1">
          <mxGeometry x="-810" y="375" width="240" height="60" as="geometry" />
        </mxCell>
        <mxCell id="UOCS6HupujKiP41zG-po-28" value="Externe API" style="text;strokeColor=none;fillColor=none;align=left;verticalAlign=middle;spacingLeft=4;spacingRight=4;overflow=hidden;points=[[0,0.5],[1,0.5]];portConstraint=eastwest;rotatable=0;whiteSpace=wrap;html=1;" parent="UOCS6HupujKiP41zG-po-27" vertex="1">
          <mxGeometry y="30" width="240" height="30" as="geometry" />
        </mxCell>
        <mxCell id="UOCS6HupujKiP41zG-po-30" style="edgeStyle=orthogonalEdgeStyle;rounded=0;orthogonalLoop=1;jettySize=auto;html=1;" parent="1" source="UOCS6HupujKiP41zG-po-23" target="UOCS6HupujKiP41zG-po-27" edge="1">
          <mxGeometry relative="1" as="geometry" />
        </mxCell>
        <mxCell id="UOCS6HupujKiP41zG-po-31" value="Nutzung der verfügbaren Endpunkte" style="edgeLabel;html=1;align=center;verticalAlign=middle;resizable=0;points=[];" parent="UOCS6HupujKiP41zG-po-30" vertex="1" connectable="0">
          <mxGeometry x="-0.0539" y="-1" relative="1" as="geometry">
            <mxPoint as="offset" />
          </mxGeometry>
        </mxCell>
      </root>
    </mxGraphModel>
  </diagram>
</mxfile>
